<svg id="Layer_1" enable-background="new 0 0 480 480" height="512" viewBox="0 0 480 480" width="512" xmlns="http://www.w3.org/2000/svg"><g><path d="m424 299.84c0 45.85-34.38 83.61-79.29 88.43-13.72 42.53-65 49.98-94.13 24.24-1.66-1.47-2.58-3.61-2.58-5.84v-31.598c0-1.936 1.385-3.608 3.294-3.931 10.46-1.771 19.809-8.215 25.326-18.261l15.96-29.11c2.2 2.97 6.24 4.1 9.74 2.51 2.77-1.26 8.37-3.14 14.71-1.53 12.02 3.06 16.28 16.45 16.32 16.59 1.05 3.44 4.22 5.66 7.65 5.66 5.38 0 9.22-5.2 7.65-10.34-.33-1.06-1.96-6.01-5.68-11.5 15.85-15.24 13.2-41.39-5.8-52.99-3.77-2.3-8.69-1.11-11 2.66-2.3 3.77-1.11 8.69 2.66 11 10.18 6.22 11.35 20.21 2.77 28.05-9.38-6.04-20.82-7.29-31.46-3.88l23.8-43.4c18.338-33.428-8.912-56.051-54.726-73.466-1.741-.662-2.783-2.452-2.52-4.296l3.896-27.327c2.288-16.066-5.918-30.969-20.253-37.629-1.418-.659-2.337-2.066-2.337-3.629v-47.863c0-2.25.94-4.42 2.64-5.89 28.47-24.57 80.69-14.87 94.09 22.81.85 2.41-.8 5.01-3.34 5.27-10.73 1.09-21.3 4.21-30.43 9.43-3.34-1.72-6.94-2.86-10.64-3.33-4.38-.56-8.38 2.55-8.93 6.93-.46 3.57 1.52 6.89 4.63 8.29-3.31 3.65-6.18 7.78-8.49 12.39-2.33 4.66.58 10.07 4.83 11.13 3.73 1.17 7.77-.53 9.5-4.03 12.76-25.8 45.03-22.66 45.94-23.05 32.15 6.02 56.25 34.34 56.25 67.82 0 17.53-6.52 34.03-18.18 46.68 23.76 16.51 38.13 43.59 38.13 73z"/><path d="m203.38 139.12c5.517-10.046 14.866-16.49 25.326-18.261 1.909-.323 3.294-1.995 3.294-3.931v-44.538c0-2.24-.93-4.41-2.63-5.87-28.337-24.419-80.639-15.077-94.087 22.753-.862 2.424.778 5.047 3.337 5.307 10.72 1.09 21.29 4.21 30.42 9.43 3.34-1.72 6.94-2.86 10.64-3.33 4.38-.56 8.38 2.55 8.93 6.93.46 3.57-1.52 6.89-4.63 8.29 3.31 3.65 6.18 7.78 8.49 12.39 2.32 4.66-.58 10.07-4.83 11.13-3.73 1.17-7.77-.53-9.5-4.03-13.02-26.33-44.95-22.63-45.94-23.05-32.15 6.02-56.25 34.34-56.25 67.82 0 17.53 6.52 34.03 18.18 46.68-23.76 16.51-38.13 43.59-38.13 73 0 45.85 34.38 83.61 79.29 88.43 13.72 42.5 64.99 49.99 94.13 24.24 1.66-1.47 2.58-3.61 2.58-5.84v-34.922c0-1.564-.919-2.971-2.337-3.629-14.335-6.66-22.541-21.563-20.253-37.629l3.937-27.615c.246-1.724-.652-3.409-2.22-4.166l-37.387-18.059c-20.601-9.934-28.683-35.193-17.68-55.25zm-49.55 135.71c2.3 3.77 1.11 8.69-2.66 11-10.19 6.22-11.34 20.22-2.77 28.05 10.7-6.9 24.1-7.55 35.92-2.16 4.02 1.83 5.79 6.58 3.96 10.6s-6.57 5.79-10.6 3.96c-2.77-1.26-8.37-3.14-14.71-1.53-12.02 3.06-16.28 16.45-16.32 16.59-1.06 3.44-4.23 5.65-7.65 5.65-5.34 0-9.22-5.17-7.65-10.33.33-1.06 1.96-6.01 5.68-11.5-15.85-15.24-13.19-41.39 5.8-52.99 3.77-2.3 8.69-1.11 11 2.66z"/><path d="m51.5 216.16-14.9 10.01c-12.584 8.466-30.339 2.587-34.64-12.38-2.59-8.99-2.61-18.47-.06-27.43 4.267-15.011 22.037-20.985 34.68-12.48l14.92 10.02c11.484 7.727 11.435 24.587 0 32.26z"/><path d="m478.04 213.79c-4.279 14.892-21.987 20.893-34.64 12.38l-14.9-10.01c-11.448-7.681-11.47-24.542 0-32.26l14.92-10.02c12.643-8.505 30.413-2.531 34.68 12.48 2.55 8.96 2.53 18.44-.06 27.43z"/><path d="m398.419 75.064c-7.062 0-10.712-8.602-5.657-13.657l15.758-15.758c3.124-3.124 8.189-3.124 11.313 0 3.125 3.124 3.125 8.189 0 11.313l-15.758 15.758c-1.561 1.563-3.608 2.344-5.656 2.344z"/><path d="m81.581 75.064c-2.047 0-4.095-.781-5.657-2.343l-15.758-15.758c-3.125-3.124-3.125-8.189 0-11.313 3.124-3.124 8.189-3.124 11.313 0l15.758 15.758c5.055 5.054 1.406 13.656-5.656 13.656z"/><path d="m414.177 436.693c-2.047 0-4.095-.781-5.657-2.343l-15.758-15.758c-3.125-3.124-3.125-8.189 0-11.313 3.124-3.124 8.189-3.124 11.313 0l15.758 15.758c5.056 5.053 1.407 13.656-5.656 13.656z"/><path d="m65.823 436.693c-7.062 0-10.712-8.602-5.657-13.657l15.758-15.758c3.124-3.124 8.189-3.124 11.313 0 3.125 3.124 3.125 8.189 0 11.313l-15.758 15.759c-1.562 1.562-3.609 2.343-5.656 2.343z"/><path d="m240 37c-4.418 0-8-3.582-8-8v-21c0-4.418 3.582-8 8-8s8 3.582 8 8v21c0 4.418-3.582 8-8 8z"/><path d="m240 480c-4.418 0-8-3.582-8-8v-21c0-4.418 3.582-8 8-8s8 3.582 8 8v21c0 4.418-3.582 8-8 8z"/><path d="m309.91 258.91-47.32 86.28c-3.63 6.61-10.26 10.42-17.37 10.42-11.99 0-21.758-10.261-19.97-22.87l6-42.08-50.56-24.41c-12.355-5.978-17.202-21.109-10.6-33.16l47.32-86.28c4.73-8.61 14.54-12.46 23.86-9.35 9.32 3.1 14.86 12.07 13.48 21.8l-6 42.08 50.56 24.41c12.357 5.979 17.201 21.11 10.6 33.16z"/></g></svg>